<svg width="271" height="80" viewBox="0 0 271 80" fill="none" xmlns="http://www.w3.org/2000/svg">
<path d="M35.5 -4.29153e-06C42.28 -4.29153e-06 47.41 1.77 50.89 5.31C54.43 8.79 56.2 13.92 56.2 20.7V42.3C56.2 49.08 54.43 54.24 50.89 57.78C47.41 61.26 42.28 63 35.5 63H0.4V-4.29153e-06H35.5ZM40 20.7C40 15.3 37.3 12.6 31.9 12.6H16.6V50.4H31.9C37.3 50.4 40 47.7 40 42.3V20.7ZM76.8754 79.2C73.6954 79.2 69.7954 78.9 65.1754 78.3V66.6H73.2754C75.5554 66.6 77.0254 65.97 77.6854 64.71C78.4054 63.45 78.2854 61.68 77.3254 59.4L58.8754 15.3H75.5254L86.7754 45.9L96.2254 15.3H112.875L94.8754 64.8C93.1354 69.54 90.8854 73.11 88.1254 75.51C85.3654 77.97 81.6154 79.2 76.8754 79.2ZM139.904 63C135.884 63.6 132.044 63.9 128.384 63.9C124.784 63.9 121.754 62.67 119.294 60.21C116.834 57.75 115.604 54.48 115.604 50.4V-4.29153e-06H131.354V48.15C131.354 49.05 131.654 49.8 132.254 50.4C132.854 51 133.604 51.3 134.504 51.3H139.904V63ZM165.089 51.3C168.269 51.3 171.869 50.7 175.889 49.5V44.1H162.839C161.939 44.1 161.189 44.4 160.589 45C159.989 45.6 159.689 46.35 159.689 47.25V48.15C159.689 49.05 159.989 49.8 160.589 50.4C161.189 51 161.939 51.3 162.839 51.3H165.089ZM148.439 16.2C159.419 15 169.319 14.4 178.139 14.4C182.219 14.4 185.489 15.63 187.949 18.09C190.409 20.55 191.639 23.82 191.639 27.9V63H177.689L176.789 58.5C173.969 60.36 171.059 61.74 168.059 62.64C165.119 63.48 162.629 63.9 160.589 63.9H157.439C153.359 63.9 150.089 62.67 147.629 60.21C145.169 57.75 143.939 54.48 143.939 50.4V46.35C143.939 42.27 145.169 39 147.629 36.54C150.089 34.08 153.359 32.85 157.439 32.85H175.889V29.25C175.889 28.35 175.589 27.6 174.989 27C174.389 26.4 173.639 26.1 172.739 26.1C168.839 26.1 164.519 26.28 159.779 26.64C155.099 27 151.319 27.27 148.439 27.45V16.2ZM226.265 27.45C223.085 27.45 219.485 28.05 215.465 29.25V63H199.715V15.3H213.665L214.565 19.8C217.385 17.94 220.265 16.59 223.205 15.75C226.205 14.85 228.725 14.4 230.765 14.4H234.815C238.895 14.4 242.165 15.63 244.625 18.09C247.085 20.55 248.315 23.82 248.315 27.9V63H232.565V30.6C232.565 29.7 232.265 28.95 231.665 28.35C231.065 27.75 230.315 27.45 229.415 27.45H226.265Z" fill="white"/>
<path d="M254.604 49.5H270.804V63H254.604V49.5Z" fill="#01A5E5"/>
</svg>
